<?xml version="1.0" encoding="iso-8859-1"?>
<!-- Uploaded to: SVG Repo, www.svgrepo.com, Generator: SVG Repo Mixer Tools -->
<svg height="800px" width="800px" version="1.1" id="Layer_1" xmlns="http://www.w3.org/2000/svg" xmlns:xlink="http://www.w3.org/1999/xlink" 
	 viewBox="0 0 448.001 448.001" xml:space="preserve">
<g transform="translate(0 -1020.36)" shape-rendering="auto" image-rendering="auto" color-rendering="auto" color-interpolation="sRGB">
	<path style="fill:#5A3392;" d="M223.91,1020.365c-70.569,0-127.875,57.453-127.875,128.031c0,35.297,13.651,87.604,35.906,132.404
		c11.128,22.402,24.422,42.867,39.688,58.094c1.434,1.424,2.993,2.57,4.469,3.906c-0.198,11.186-0.096,33.563-0.096,33.563h16.062
		v-21.656c9.984,5.92,20.597,9.719,31.906,9.719c11.314,0,21.979-3.793,32-9.719v33.688h-80.687
		c-9.785,1.217-9.136,15.605,0.718,15.936v56c-0.016,4.443,3.588,8.049,8.031,8.031h79.969c4.443,0,8.048-3.588,8.031-8.031v-56
		c11.633,1.057,11.633-16.992,0-15.936c0.064-15.199-0.128-45.596-0.128-45.596s3.035-2.479,4.469-3.906
		c15.264-15.227,28.559-35.693,39.687-58.094c0.824-1.658,1.544-3.385,2.344-5.063l-16.563-4.719l8.844-31.094l20.531,5.844
		c13.134-35.137,20.75-71.004,20.75-97.375c0-70.58-57.4-127.997-127.969-128.032h-0.032h-0.032L223.91,1020.365z"/>
	<path style="fill:#FB9761;" d="M216.047,1036.815v310.499c-8.167-1.658-16.331-5.746-24.406-12.154l-6.531-44.906
		c-0.039-0.08-0.08-0.16-0.122-0.24c-12.885-76.42-10.129-142.289-2.812-220.377l2.407-25.936
		c9.899-3.714,20.454-6.107,31.469-6.875L216.047,1036.815z"/>
	<path style="fill:#3CDEF6;" d="M232.016,1036.845c11.022,0.784,21.56,3.144,31.469,6.875l2.407,25.906
		c7.318,78.086,9.946,143.957-2.939,220.377c-0.001,0.08-0.001,0.16,0,0.24l-6.532,44.908c-8.069,6.381-16.248,10.486-24.406,12.154
		v-310.467L232.016,1036.845z"/>
	<path style="fill:#FFFFFF;" d="M192.078,1404.345h63.907v48.063h-63.907L192.078,1404.345L192.078,1404.345z"/>
	<path style="fill:#EBFEFF;" d="M200.203,1404.345h55.782v40.313h-55.782V1404.345z"/>
	<path style="fill:#EE746C;" d="M167.766,1051.627l-1.53,16.563c-7.362,78.564-10.135,146.266,3.06,224.531l3.374,23.25
		c-9.554-11.943-18.451-26.486-26.281-42.25c-21.176-42.629-34.374-94.338-34.374-125.313c0-41.422,22.41-77.414,55.75-96.783
		L167.766,1051.627z"/>
	<path style="fill:#29A3EC;" d="M280.328,1051.689c33.311,19.383,55.719,55.342,55.719,96.719
		c0,30.975-13.168,82.684-34.344,125.313c-7.83,15.764-16.758,30.305-26.312,42.25l3.374-23.25v-0.24
		c13.149-78.162,10.447-145.83,3.096-224.313l-1.53-16.5L280.328,1051.689z"/>
</g>
</svg>